<svg xmlns="http://www.w3.org/2000/svg" xmlns:xlink="http://www.w3.org/1999/xlink" viewBox="0 0 830.53 102.5" width="200"  height="24.68303372545242" ><defs><style>.cls-1{fill:#33424f;}.cls-2{fill:#3778b4;}.cls-3{fill:url(#linear-gradient);}.cls-4{fill:url(#linear-gradient-2);}.cls-5{fill:url(#linear-gradient-3);}.cls-6{fill:url(#linear-gradient-4);}.cls-7{fill:url(#linear-gradient-5);}.cls-8{fill:url(#linear-gradient-6);}</style><linearGradient id="linear-gradient" x1="97.4" y1="-11.44" x2="55.97" y2="29.99" gradientUnits="userSpaceOnUse"><stop offset="0" stop-color="#3778b4"/><stop offset="1" stop-color="#33424f"/></linearGradient><linearGradient id="linear-gradient-2" x1="8.67" y1="117.82" x2="75.66" y2="50.82" gradientUnits="userSpaceOnUse"><stop offset="0" stop-color="#33424f"/><stop offset="1" stop-color="#3778b4"/></linearGradient><linearGradient id="linear-gradient-3" x1="178.47" y1="94.78" x2="228.63" y2="67.25" xlink:href="#linear-gradient"/><linearGradient id="linear-gradient-4" x1="218.28" y1="55.21" x2="292.71" y2="-19.22" xlink:href="#linear-gradient"/><linearGradient id="linear-gradient-5" x1="196.45" y1="53" x2="97.45" y2="53" gradientTransform="translate(80.52 -88.39) rotate(45)" xlink:href="#linear-gradient"/><linearGradient id="linear-gradient-6" x1="181.96" y1="53" x2="111.95" y2="53" gradientTransform="translate(80.52 -88.39) rotate(45)" xlink:href="#linear-gradient-2"/></defs><title>Asset 2</title><g id="Layer_2" data-name="Layer 2"><g id="Layer_1-2" data-name="Layer 1"><path class="cls-1" d="M339,99V5h56V16H356V87h41V99Zm19.85-44a29.2,29.2,0,0,1,2.46-5.56,14.29,14.29,0,0,1,4.11-4.62A10.28,10.28,0,0,1,371.6,43H390V55Z"/><path class="cls-1" d="M438.09,100.57A27.45,27.45,0,0,1,422,95.9a29.42,29.42,0,0,1-10.18-12.77,45.6,45.6,0,0,1-3.5-18.29,36.78,36.78,0,0,1,2.45-13.55,35.54,35.54,0,0,1,6.64-10.91,31.75,31.75,0,0,1,9.52-7.31A24.59,24.59,0,0,1,438,30.43a47.12,47.12,0,0,1,6.51.46,49.87,49.87,0,0,1,7.84,1.89,20.56,20.56,0,0,1-4.4,6.5,9.51,9.51,0,0,1-6.51,2.65,14.9,14.9,0,0,0-8.66,2.91,17,17,0,0,0-5.49,7.77,34.64,34.64,0,0,0-1.92,12.24,37.51,37.51,0,0,0,1.82,12,20.18,20.18,0,0,0,5.29,8.59,12,12,0,0,0,8.43,3.2,15.81,15.81,0,0,0,8-2.29,33.52,33.52,0,0,0,8.1-7.05V0h16V80.26a87.73,87.73,0,0,0,.53,9.89A84.88,84.88,0,0,0,475,99h-12.1a9.89,9.89,0,0,1-2.74-2.74,18.42,18.42,0,0,1-1.88-3.72l-.53-2.68-1.79,2.61a28.05,28.05,0,0,1-9.29,6.33A24,24,0,0,1,438.09,100.57Z"/><path class="cls-1" d="M510.57,100.77a19.88,19.88,0,0,1-9-2.14,16.36,16.36,0,0,1-6.91-6.76q-2.64-4.61-2.63-12V32h16V80.17a10.92,10.92,0,0,0,1.58,6.11q1.58,2.41,5.27,2.4a8.82,8.82,0,0,0,2.57-.36,17,17,0,0,1,3-.55,7.72,7.72,0,0,1,6,1.59,26.83,26.83,0,0,1,4.84,5,55,55,0,0,1-11.59,5A34.6,34.6,0,0,1,510.57,100.77ZM539.11,99a18.68,18.68,0,0,1-4.1-6.93,25.63,25.63,0,0,1-1-7.32V32h16V82.67a64.09,64.09,0,0,0,.49,7.65A75.1,75.1,0,0,0,552.1,99Z"/><path class="cls-2" d="M573,99V4h16V87h37l-.07,12Z"/><path class="cls-2" d="M658,100.56a21.11,21.11,0,0,1-10.78-2.63,18.21,18.21,0,0,1-7-7,19.35,19.35,0,0,1-2.43-9.52A18.14,18.14,0,0,1,641,70.89q3.18-4.65,10.75-7.7t20.74-4.35a22.62,22.62,0,0,1-1.32,4.94,11.42,11.42,0,0,1-2.74,4.13,8.85,8.85,0,0,1-4.69,2.24,16.88,16.88,0,0,0-6.43,2.15A8.88,8.88,0,0,0,654,75.76,9.5,9.5,0,0,0,653,80a8.58,8.58,0,0,0,8.82,8.71,14.82,14.82,0,0,0,7.85-2.44A28.42,28.42,0,0,0,677,79.5V58q0-7.15-3.62-11.47t-11-4.32a35.06,35.06,0,0,0-6.71.68,52.13,52.13,0,0,0-8,2.37l-3.72-10.14a46.11,46.11,0,0,1,11.28-3.74,55,55,0,0,1,9.83-1q12.92,0,19.95,7.25t7,20.77v21.9a91.14,91.14,0,0,0,.5,9.85A68.75,68.75,0,0,0,694,99H682.74A8.26,8.26,0,0,1,680,96.21a22.06,22.06,0,0,1-1.83-3.77L677.88,90l-1.51,2.28q-5.29,5.14-9.49,6.73A24.9,24.9,0,0,1,658,100.56Z"/><path class="cls-2" d="M737.77,101.23a57.79,57.79,0,0,1-13.92-1.66A63,63,0,0,1,710,94.21V1h16V87.78a33.41,33.41,0,0,0,6.08,1.3,51.17,51.17,0,0,0,5.69.33,15.22,15.22,0,0,0,13.22-7q4.83-7,4.83-18.07a35.11,35.11,0,0,0-1.59-10.79,17.57,17.57,0,0,0-4.83-7.87A10.77,10.77,0,0,0,741.27,43a7.61,7.61,0,0,1-6.22-2.31,29.6,29.6,0,0,1-4.36-6.08,38.11,38.11,0,0,1,7.57-2.47,34.45,34.45,0,0,1,7.17-.84,23.77,23.77,0,0,1,11,2.57,27.24,27.24,0,0,1,8.73,7.08,33.5,33.5,0,0,1,5.75,10.53,39.54,39.54,0,0,1,2,12.84,40.43,40.43,0,0,1-4.33,18.88,32.89,32.89,0,0,1-12.26,13.2A35,35,0,0,1,737.77,101.23Z"/><path class="cls-2" d="M807.78,100.38a77.35,77.35,0,0,1-11.18-.91,57.56,57.56,0,0,1-14.43-4.55l3.71-10.72a59.38,59.38,0,0,0,10.5,3.35,44.07,44.07,0,0,0,8.94,1q5.26,0,7.7-2.31a7.24,7.24,0,0,0,2.44-5.43,6.93,6.93,0,0,0-2.27-5.3,23,23,0,0,0-5.85-3.8q-3.58-1.69-7.6-3.48A49.58,49.58,0,0,1,792.12,64a20.36,20.36,0,0,1-5.85-5.95A16,16,0,0,1,784,49.29a17.57,17.57,0,0,1,2.34-8.45,18.93,18.93,0,0,1,7.38-7.21q5-2.93,13.1-2.92a58.77,58.77,0,0,1,8.71.68A61.34,61.34,0,0,1,826,34.08l-3.71,10.46a67.22,67.22,0,0,0-7.93-1.88,39.92,39.92,0,0,0-6.31-.52,11.15,11.15,0,0,0-6.5,1.72,5.69,5.69,0,0,0-2.47,5A6.81,6.81,0,0,0,801.35,54a22.37,22.37,0,0,0,5.85,3.83l7.61,3.58a52.63,52.63,0,0,1,7.6,4.36,21,21,0,0,1,5.85,6,16.15,16.15,0,0,1,2.28,8.84,17,17,0,0,1-3.22,10.24,22.16,22.16,0,0,1-8.42,7A25,25,0,0,1,807.78,100.38Z"/><polygon class="cls-3" points="112 4.3 0 39.26 0 66.67 50.28 82.37 79.07 53.59 78.94 53.46 112 20.41 112 4.3"/><polygon class="cls-4" points="112 101.67 0 66.72 0 39.3 50.28 23.61 79.07 52.39 78.94 52.52 112 85.57 112 101.67"/><polygon class="cls-5" points="182 101.67 294 66.72 294 39.3 243.72 23.61 214.93 52.39 215.06 52.52 182 85.57 182 101.67"/><polygon class="cls-6" points="182 4.3 294 39.26 294 66.67 243.72 82.37 214.93 53.59 215.06 53.46 182 20.41 182 4.3"/><rect class="cls-7" x="111.95" y="18" width="70" height="70" transform="translate(5.57 119.44) rotate(-45)"/><rect class="cls-8" x="122.2" y="28.25" width="49.5" height="49.5" transform="translate(5.57 119.44) rotate(-45)"/></g></g></svg>